<?xml version="1.0" encoding="UTF-8" standalone="no"?>
<!DOCTYPE svg PUBLIC "-//W3C//DTD SVG 1.1//EN" "http://www.w3.org/Graphics/SVG/1.1/DTD/svg11.dtd">
<svg width="100%" height="100%" viewBox="0 0 40 54" version="1.1" xmlns="http://www.w3.org/2000/svg" xmlns:xlink="http://www.w3.org/1999/xlink" xml:space="preserve" xmlns:serif="http://www.serif.com/" style="fill-rule:evenodd;clip-rule:evenodd;stroke-linejoin:round;stroke-miterlimit:2;">
    <g transform="matrix(1,0,0,1,-431.296,-658.22)">
        <g transform="matrix(1,0,0,3.02593,0,0)">
            <g transform="matrix(1,0,0,1,0,4.34291)">
                <g transform="matrix(0.421332,0,0,0.139241,195.347,183.809)">
                    <path d="M576.083,227.041L586.16,216.964L586.16,237.119L566.006,237.119L576.083,227.041ZM641.402,214.48L641.402,326.041L563.521,326.041L563.521,240.633L587.917,240.633C588.888,240.633 589.674,239.846 589.674,238.876L589.674,214.48L641.402,214.48ZM650.161,223.238L650.161,334.799L572.278,334.799L572.278,329.555L643.159,329.555C644.13,329.555 644.916,328.768 644.916,327.798L644.916,223.238L650.161,223.238ZM561.765,329.555L568.765,329.555L568.765,336.556C568.765,337.527 569.55,338.313 570.521,338.313L651.917,338.313C652.888,338.313 653.674,337.527 653.674,336.556L653.674,221.481C653.674,220.511 652.888,219.724 651.917,219.724L644.916,219.724L644.916,212.723C644.916,211.752 644.13,210.966 643.159,210.966L587.917,210.966L587.805,210.988C587.65,210.998 587.502,211.028 587.355,211.078L587.189,211.137C587.002,211.222 586.825,211.33 586.675,211.481L560.522,237.634C560.371,237.785 560.264,237.962 560.178,238.149L560.12,238.312C560.069,238.461 560.039,238.611 560.029,238.768L560.008,238.876L560.008,327.798C560.008,328.768 560.793,329.555 561.765,329.555Z" style="fill:white;"/>
                </g>
                <g transform="matrix(0.421332,0,0,0.139241,195.347,183.809)">
                    <path d="M574.195,274.31L587.886,260.619C588.572,259.933 588.572,258.821 587.886,258.135C587.2,257.448 586.088,257.448 585.402,258.135L570.468,273.068C569.782,273.754 569.782,274.866 570.468,275.552L586.061,291.144C586.404,291.488 586.853,291.659 587.303,291.659C587.752,291.659 588.202,291.488 588.545,291.144C589.231,290.458 589.231,289.346 588.545,288.66L574.195,274.31Z" style="fill:white;"/>
                </g>
                <g transform="matrix(0.421332,0,0,0.139241,195.347,183.809)">
                    <path d="M630.873,274.969L617.181,288.66C616.495,289.346 616.495,290.458 617.181,291.144C617.525,291.488 617.974,291.659 618.424,291.659C618.873,291.659 619.323,291.488 619.666,291.144L634.599,276.211C635.285,275.525 635.285,274.413 634.599,273.727L619.007,258.135C618.321,257.448 617.209,257.448 616.523,258.135C615.836,258.821 615.836,259.933 616.523,260.619L630.873,274.969Z" style="fill:white;"/>
                </g>
                <g transform="matrix(0.421332,0,0,0.139241,195.347,183.809)">
                    <path d="M597.406,291.532C597.623,291.619 597.844,291.66 598.063,291.66C598.758,291.66 599.417,291.244 599.693,290.559L611.992,260.033C612.354,259.133 611.918,258.11 611.019,257.747C610.12,257.387 609.095,257.819 608.732,258.72L596.434,289.246C596.072,290.146 596.507,291.169 597.406,291.532Z" style="fill:white;"/>
                </g>
            </g>
        </g>
    </g>
</svg>
