<?xml version="1.0" encoding="UTF-8" standalone="no"?>
<!DOCTYPE svg PUBLIC "-//W3C//DTD SVG 1.1//EN" "http://www.w3.org/Graphics/SVG/1.1/DTD/svg11.dtd">
<svg width="100%" height="100%" viewBox="0 0 39 54" version="1.1" xmlns="http://www.w3.org/2000/svg" xmlns:xlink="http://www.w3.org/1999/xlink" xml:space="preserve" xmlns:serif="http://www.serif.com/" style="fill-rule:evenodd;clip-rule:evenodd;stroke-linejoin:round;stroke-miterlimit:2;">
    <g transform="matrix(1,0,0,1,-125.38,-658.22)">
        <g transform="matrix(1,0,0,3.02593,0,0)">
            <g transform="matrix(1,0,0,1,0,4.34291)">
                <g transform="matrix(0.426219,0,0,0.140856,64.3135,159.4)">
                    <path d="M169.428,387.835L169.428,407.99L149.273,407.99L169.428,387.835ZM224.669,400.775L209.284,400.775C208.313,400.775 207.527,401.562 207.527,402.532L207.527,496.912L198.596,496.912L198.596,419.002L198.592,418.973C198.59,418.862 198.568,418.752 198.545,418.642L198.521,418.498L198.471,418.383L198.404,418.238L198.319,418.055L187.778,401.585C187.133,400.576 185.464,400.576 184.819,401.585L174.277,418.055L174.192,418.238L174.126,418.383L174.076,418.498L174.052,418.642C174.029,418.752 174.006,418.862 174.005,418.973L174,419.002L174,496.912L146.789,496.912L146.789,411.504L171.185,411.504C172.155,411.504 172.942,410.717 172.942,409.747L172.942,385.351L224.669,385.351L224.669,400.775ZM229.781,504.211L211.04,504.211L211.04,404.289L229.781,404.289L229.781,504.211ZM188.055,504.211L184.542,504.211C181.084,504.211 178.217,501.695 177.637,498.401L177.638,498.375C177.577,498.012 177.514,497.586 177.514,497.183L177.514,491.034L189.812,491.034L189.812,494.548C189.812,495.518 190.599,496.305 191.569,496.305C192.539,496.305 193.326,495.518 193.326,494.548L193.326,491.034L195.083,491.034L195.083,497.183C195.083,497.589 195.019,498.012 194.957,498.372L194.959,498.406C194.377,501.697 191.512,504.211 188.055,504.211ZM188.359,409.01L184.238,409.01L186.298,405.791L188.359,409.01ZM184.542,420.759L184.542,477.858L177.514,477.858L177.514,420.759L184.542,420.759ZM178.967,417.246L181.989,412.524L190.608,412.524L193.63,417.246L178.967,417.246ZM195.083,477.858L188.055,477.858L188.055,420.759L195.083,420.759L195.083,477.858ZM177.514,487.52L177.514,481.371L195.083,481.371L195.083,487.52L177.514,487.52ZM145.032,500.426L174.516,500.426C175.888,504.656 179.86,507.724 184.542,507.724L188.055,507.724C192.736,507.724 196.709,504.656 198.081,500.426L207.527,500.426L207.527,505.967C207.527,506.938 208.313,507.724 209.284,507.724L231.538,507.724C232.508,507.724 233.295,506.938 233.295,505.967L233.295,402.532C233.295,401.562 232.508,400.775 231.538,400.775L228.183,400.775L228.183,383.594C228.183,382.624 227.396,381.837 226.426,381.837L171.185,381.837L171.081,381.858C170.921,381.867 170.767,381.898 170.617,381.95L170.46,382.006C170.273,382.092 170.094,382.2 169.943,382.352L143.79,408.505C143.639,408.656 143.531,408.833 143.446,409.019L143.387,409.185C143.337,409.332 143.307,409.481 143.297,409.637L143.275,409.747L143.275,498.669C143.275,499.639 144.061,500.426 145.032,500.426Z" style="fill:white;"/>
                </g>
                <g transform="matrix(0.426219,0,0,0.140856,64.3135,159.4)">
                    <path d="M215.287,409.01C214.317,409.01 213.53,409.797 213.53,410.767L213.53,414.281C213.53,415.251 214.317,416.038 215.287,416.038C216.257,416.038 217.044,415.251 217.044,414.281L217.044,410.767C217.044,409.797 216.257,409.01 215.287,409.01Z" style="fill:white;"/>
                </g>
                <g transform="matrix(0.426219,0,0,0.140856,64.3135,159.4)">
                    <path d="M215.287,420.506C214.317,420.506 213.53,421.293 213.53,422.263L213.53,428.649C213.53,429.619 214.317,430.406 215.287,430.406C216.257,430.406 217.044,429.619 217.044,428.649L217.044,422.263C217.044,421.293 216.257,420.506 215.287,420.506Z" style="fill:white;"/>
                </g>
                <g transform="matrix(0.426219,0,0,0.140856,64.3135,159.4)">
                    <path d="M215.287,463.613C214.317,463.613 213.53,464.4 213.53,465.37L213.53,471.757C213.53,472.727 214.317,473.513 215.287,473.513C216.257,473.513 217.044,472.727 217.044,471.757L217.044,465.37C217.044,464.4 216.257,463.613 215.287,463.613Z" style="fill:white;"/>
                </g>
                <g transform="matrix(0.426219,0,0,0.140856,64.3135,159.4)">
                    <path d="M215.287,477.982C214.317,477.982 213.53,478.769 213.53,479.739L213.53,486.125C213.53,487.096 214.317,487.882 215.287,487.882C216.257,487.882 217.044,487.096 217.044,486.125L217.044,479.739C217.044,478.769 216.257,477.982 215.287,477.982Z" style="fill:white;"/>
                </g>
                <g transform="matrix(0.426219,0,0,0.140856,64.3135,159.4)">
                    <path d="M215.287,449.244C214.317,449.244 213.53,450.031 213.53,451.001L213.53,457.388C213.53,458.358 214.317,459.144 215.287,459.144C216.257,459.144 217.044,458.358 217.044,457.388L217.044,451.001C217.044,450.031 216.257,449.244 215.287,449.244Z" style="fill:white;"/>
                </g>
                <g transform="matrix(0.426219,0,0,0.140856,64.3135,159.4)">
                    <path d="M215.287,434.875C214.317,434.875 213.53,435.662 213.53,436.632L213.53,443.019C213.53,443.989 214.317,444.776 215.287,444.776C216.257,444.776 217.044,443.989 217.044,443.019L217.044,436.632C217.044,435.662 216.257,434.875 215.287,434.875Z" style="fill:white;"/>
                </g>
                <g transform="matrix(0.426219,0,0,0.140856,64.3135,159.4)">
                    <path d="M215.287,492.352C214.317,492.352 213.53,493.138 213.53,494.109L213.53,497.622C213.53,498.593 214.317,499.379 215.287,499.379C216.257,499.379 217.044,498.593 217.044,497.622L217.044,494.109C217.044,493.138 216.257,492.352 215.287,492.352Z" style="fill:white;"/>
                </g>
            </g>
        </g>
    </g>
</svg>
