<?xml version="1.0" encoding="UTF-8" standalone="no"?>
<!DOCTYPE svg PUBLIC "-//W3C//DTD SVG 1.1//EN" "http://www.w3.org/Graphics/SVG/1.1/DTD/svg11.dtd">
<svg width="100%" height="100%" viewBox="0 0 39 54" version="1.1" xmlns="http://www.w3.org/2000/svg" xmlns:xlink="http://www.w3.org/1999/xlink" xml:space="preserve" xmlns:serif="http://www.serif.com/" style="fill-rule:evenodd;clip-rule:evenodd;stroke-linejoin:round;stroke-miterlimit:2;">
    <g transform="matrix(1,0,0,1,-729,-658.288)">
        <g transform="matrix(1,0,0,3.02593,0,0)">
            <g transform="matrix(0.465977,0,0,0.153995,133.016,105.749)">
                <g transform="matrix(0.969736,0,0,0.969736,1137.58,517.172)">
                    <path d="M171.983,221.343L171.983,241.498L151.828,241.498L171.983,221.343ZM227.225,330.42L149.344,330.42L149.344,245.012L173.74,245.012C174.711,245.012 175.497,244.225 175.497,243.255L175.497,218.859L227.225,218.859L227.225,330.42ZM147.587,333.934L228.982,333.934C229.952,333.934 230.739,333.147 230.739,332.177L230.739,217.102C230.739,216.132 229.952,215.345 228.982,215.345L173.74,215.345L173.638,215.365C173.477,215.375 173.323,215.406 173.17,215.459L173.016,215.514C172.828,215.6 172.65,215.708 172.498,215.86L146.345,242.013C146.194,242.164 146.087,242.341 146.001,242.528L145.942,242.693C145.892,242.84 145.862,242.989 145.852,243.145L145.83,243.255L145.83,332.177C145.83,333.147 146.617,333.934 147.587,333.934Z" style="fill:white;"/>
                </g>
                <g transform="matrix(0.969736,0,0,0.969736,1115.67,524.497)">
                    <path d="M185.649,264.318L234.469,264.318C235.44,264.318 236.226,263.531 236.226,262.561C236.226,261.591 235.44,260.804 234.469,260.804L185.649,260.804C184.679,260.804 183.892,261.591 183.892,262.561C183.892,263.531 184.679,264.318 185.649,264.318Z" style="fill:white;"/>
                </g>
                <g transform="matrix(0.969736,0,0,0.969736,1115.67,560.089)">
                    <path d="M185.649,264.318L234.469,264.318C235.44,264.318 236.226,263.531 236.226,262.561C236.226,261.591 235.44,260.804 234.469,260.804L185.649,260.804C184.679,260.804 183.892,261.591 183.892,262.561C183.892,263.531 184.679,264.318 185.649,264.318Z" style="fill:white;"/>
                </g>
                <g transform="matrix(5.93792e-17,0.969736,-0.969736,5.93792e-17,1597.66,599.081)">
                    <path d="M185.649,264.318L222.094,264.318C223.065,264.318 223.851,263.531 223.851,262.561C223.851,261.591 223.065,260.804 222.094,260.804L185.649,260.804C184.679,260.804 183.892,261.591 183.892,262.561C183.892,263.531 184.679,264.318 185.649,264.318Z" style="fill:white;"/>
                </g>
                <g transform="matrix(5.93792e-17,0.969736,-0.969736,5.93792e-17,1550.32,599.331)">
                    <path d="M185.649,264.318L222.094,264.318C223.065,264.318 223.851,263.531 223.851,262.561C223.851,261.591 223.065,260.804 222.094,260.804L185.649,260.804C184.679,260.804 183.892,261.591 183.892,262.561C183.892,263.531 184.679,264.318 185.649,264.318Z" style="fill:white;"/>
                </g>
                <g transform="matrix(0.814658,-0.419948,0.419948,0.814658,1030.51,647.483)">
                    <path d="M198.716,284.961L178.841,284.961C177.871,284.961 177.084,285.748 177.084,286.718C177.084,287.688 177.871,288.475 178.841,288.475L198.716,288.475C199.686,288.475 200.473,287.688 200.473,286.718C200.473,285.748 199.686,284.961 198.716,284.961Z" style="fill:white;"/>
                </g>
                <g transform="matrix(0.793737,0.458264,-0.458264,0.793737,1302.26,488.06)">
                    <path d="M198.716,284.961L178.841,284.961C177.871,284.961 177.084,285.748 177.084,286.718C177.084,287.688 177.871,288.475 178.841,288.475L198.716,288.475C199.686,288.475 200.473,287.688 200.473,286.718C200.473,285.748 199.686,284.961 198.716,284.961Z" style="fill:white;"/>
                </g>
                <g transform="matrix(0.793737,0.458264,-0.458264,0.793737,1316.8,489.501)">
                    <path d="M198.716,284.961L178.841,284.961C177.871,284.961 177.084,285.748 177.084,286.718C177.084,287.688 177.871,288.475 178.841,288.475L198.716,288.475C199.686,288.475 200.473,287.688 200.473,286.718C200.473,285.748 199.686,284.961 198.716,284.961Z" style="fill:white;"/>
                </g>
                <g transform="matrix(0.839816,-0.484868,0.484868,0.839816,1045.86,640.582)">
                    <path d="M169.618,284.961L162.724,284.961C161.754,284.961 160.967,285.748 160.967,286.718C160.967,287.688 161.754,288.475 162.724,288.475L169.618,288.475C170.588,288.475 171.374,287.688 171.374,286.718C171.374,285.748 170.588,284.961 169.618,284.961Z" style="fill:white;"/>
                </g>
            </g>
        </g>
    </g>
</svg>
